<?xml version="1.0" encoding="utf-8"?>
<!-- Generator: Adobe Illustrator 24.2.0, SVG Export Plug-In . SVG Version: 6.00 Build 0)  -->
<svg version="1.1" id="Page_1" xmlns="http://www.w3.org/2000/svg" xmlns:xlink="http://www.w3.org/1999/xlink" x="0px" y="0px"
	 viewBox="0 0 282.7 49.8" style="enable-background:new 0 0 282.7 49.8;" xml:space="preserve">
<style type="text/css">
	.st0{fill:#1E1E21;}
</style>
<g id="_x2014_ÎÓÈ_x5F_1_x5F_1_x5F_">
	<g>
		<g>
			<path class="st0" d="M87.8,6.3h11.7v3.9h-7.7v2.8h6.4v3.6h-6.4V22h-4V6.3z"/>
			<path class="st0" d="M105.1,14.1c0-1.1,0.2-2.2,0.7-3.2c0.4-1,1-1.8,1.8-2.6s1.6-1.3,2.7-1.8c1-0.4,2.1-0.6,3.2-0.6
				c1.1,0,2.2,0.2,3.2,0.6c1,0.4,1.9,1,2.7,1.8c0.8,0.7,1.4,1.6,1.8,2.6c0.4,1,0.7,2,0.7,3.2s-0.2,2.2-0.7,3.2c-0.4,1-1,1.9-1.8,2.6
				c-0.8,0.7-1.6,1.3-2.7,1.8s-2.1,0.6-3.2,0.6c-1.1,0-2.2-0.2-3.2-0.6c-1-0.4-1.9-1-2.7-1.8s-1.4-1.6-1.8-2.6
				C105.3,16.3,105.1,15.2,105.1,14.1z M109.2,14.1c0,0.6,0.1,1.1,0.3,1.7s0.5,1,0.9,1.4c0.4,0.4,0.8,0.7,1.4,0.9
				c0.5,0.2,1.1,0.3,1.7,0.3c0.6,0,1.2-0.1,1.7-0.3c0.5-0.2,1-0.5,1.3-0.9s0.7-0.8,0.9-1.4s0.3-1.1,0.3-1.7s-0.1-1.1-0.3-1.7
				s-0.5-1-0.9-1.4s-0.8-0.7-1.3-0.9c-0.5-0.2-1.1-0.3-1.7-0.3c-0.6,0-1.1,0.1-1.7,0.3c-0.5,0.2-1,0.5-1.4,0.9
				c-0.4,0.4-0.7,0.8-0.9,1.4S109.2,13.5,109.2,14.1z"/>
			<path class="st0" d="M127.4,14.1c0-1.1,0.2-2.2,0.7-3.2c0.4-1,1-1.8,1.8-2.6s1.6-1.3,2.7-1.8c1-0.4,2.1-0.6,3.2-0.6
				c1.1,0,2.2,0.2,3.2,0.6c1,0.4,1.9,1,2.7,1.8c0.8,0.7,1.4,1.6,1.8,2.6c0.4,1,0.7,2,0.7,3.2s-0.2,2.2-0.7,3.2c-0.4,1-1,1.9-1.8,2.6
				c-0.8,0.7-1.6,1.3-2.7,1.8s-2.1,0.6-3.2,0.6c-1.1,0-2.2-0.2-3.2-0.6c-1-0.4-1.9-1-2.7-1.8s-1.4-1.6-1.8-2.6
				C127.6,16.3,127.4,15.2,127.4,14.1z M131.4,14.1c0,0.6,0.1,1.1,0.3,1.7s0.5,1,0.9,1.4c0.4,0.4,0.8,0.7,1.4,0.9
				c0.5,0.2,1.1,0.3,1.7,0.3c0.6,0,1.2-0.1,1.7-0.3c0.5-0.2,1-0.5,1.3-0.9s0.7-0.8,0.9-1.4s0.3-1.1,0.3-1.7s-0.1-1.1-0.3-1.7
				s-0.5-1-0.9-1.4s-0.8-0.7-1.3-0.9c-0.5-0.2-1.1-0.3-1.7-0.3c-0.6,0-1.1,0.1-1.7,0.3c-0.5,0.2-1,0.5-1.4,0.9
				c-0.4,0.4-0.7,0.8-0.9,1.4S131.4,13.5,131.4,14.1z"/>
			<path class="st0" d="M150.3,6.3h7.3c1.2,0,2.3,0.2,3.2,0.6c0.9,0.4,1.7,1,2.3,1.7c0.6,0.7,1.1,1.6,1.4,2.5s0.5,2,0.5,3
				c0,1.1-0.2,2.1-0.5,3c-0.3,1-0.8,1.8-1.4,2.5c-0.6,0.7-1.4,1.3-2.3,1.7c-0.9,0.4-2,0.6-3.2,0.6h-7.3V6.3z M154.4,10.2v7.9h3
				c0.6,0,1.1-0.1,1.6-0.3c0.5-0.2,0.8-0.5,1.1-0.8c0.3-0.3,0.5-0.8,0.7-1.2c0.2-0.5,0.2-1,0.2-1.6c0-1.2-0.3-2.1-0.9-2.9
				c-0.6-0.7-1.5-1.1-2.7-1.1H154.4z"/>
			<path class="st0" d="M174.7,17.3v0.1c0,0.1,0.1,0.3,0.2,0.5c0.1,0.2,0.3,0.3,0.5,0.5c0.2,0.1,0.5,0.3,0.8,0.4
				c0.3,0.1,0.7,0.1,1.2,0.1c0.8,0,1.3-0.1,1.6-0.3c0.3-0.2,0.4-0.4,0.4-0.7c0-0.3-0.2-0.6-0.6-0.9c-0.4-0.2-1.1-0.5-2.1-0.8
				c-0.6-0.2-1.3-0.4-2-0.7c-0.7-0.3-1.3-0.6-1.9-1c-0.6-0.4-1-0.9-1.4-1.5c-0.4-0.6-0.6-1.3-0.6-2.1c0-0.8,0.2-1.4,0.5-2
				s0.7-1.1,1.3-1.5c0.5-0.4,1.2-0.7,1.9-1s1.6-0.3,2.5-0.3c0.9,0,1.8,0.1,2.5,0.4c0.8,0.2,1.5,0.6,2,1c0.6,0.4,1,1,1.3,1.6
				c0.3,0.6,0.5,1.3,0.5,2.1v0.2h-3.9v-0.1c0-0.2,0-0.4-0.2-0.6c-0.1-0.2-0.3-0.4-0.5-0.5c-0.2-0.2-0.5-0.3-0.8-0.4
				c-0.3-0.1-0.7-0.2-1.1-0.2c-0.7,0-1.2,0.1-1.5,0.3c-0.3,0.2-0.4,0.5-0.4,0.7c0,0.3,0.2,0.6,0.6,0.8c0.4,0.2,1.1,0.5,2,0.8
				c0.5,0.2,1.1,0.4,1.8,0.7c0.7,0.3,1.3,0.6,1.9,1c0.6,0.4,1.1,0.9,1.5,1.6c0.4,0.6,0.6,1.3,0.6,2.2c0,0.8-0.2,1.4-0.5,2
				c-0.3,0.6-0.8,1.1-1.3,1.5c-0.6,0.4-1.2,0.7-2,0.9c-0.8,0.2-1.6,0.3-2.5,0.3c-0.9,0-1.8-0.1-2.6-0.3c-0.8-0.2-1.5-0.5-2.1-0.9
				c-0.6-0.4-1.1-0.9-1.4-1.5s-0.5-1.3-0.5-2.1v-0.2H174.7z"/>
			<path class="st0" d="M196.1,12l3.5-5.7h4.8l-6.2,10V22h-4v-5.8l-6.2-10h4.7L196.1,12z"/>
			<path class="st0" d="M212.6,17.3v0.1c0,0.1,0.1,0.3,0.2,0.5c0.1,0.2,0.3,0.3,0.5,0.5c0.2,0.1,0.5,0.3,0.8,0.4
				c0.3,0.1,0.7,0.1,1.2,0.1c0.8,0,1.3-0.1,1.6-0.3c0.3-0.2,0.4-0.4,0.4-0.7c0-0.3-0.2-0.6-0.6-0.9c-0.4-0.2-1.1-0.5-2.1-0.8
				c-0.6-0.2-1.3-0.4-2-0.7c-0.7-0.3-1.3-0.6-1.9-1c-0.6-0.4-1-0.9-1.4-1.5c-0.4-0.6-0.6-1.3-0.6-2.1c0-0.8,0.2-1.4,0.5-2
				s0.7-1.1,1.3-1.5c0.5-0.4,1.2-0.7,1.9-1S214,6,214.9,6c0.9,0,1.8,0.1,2.5,0.4c0.8,0.2,1.5,0.6,2,1c0.6,0.4,1,1,1.3,1.6
				c0.3,0.6,0.5,1.3,0.5,2.1v0.2h-3.9v-0.1c0-0.2,0-0.4-0.2-0.6c-0.1-0.2-0.3-0.4-0.5-0.5c-0.2-0.2-0.5-0.3-0.8-0.4
				c-0.3-0.1-0.7-0.2-1.1-0.2c-0.7,0-1.2,0.1-1.5,0.3c-0.3,0.2-0.4,0.5-0.4,0.7c0,0.3,0.2,0.6,0.6,0.8c0.4,0.2,1.1,0.5,2,0.8
				c0.5,0.2,1.1,0.4,1.8,0.7c0.7,0.3,1.3,0.6,1.9,1c0.6,0.4,1.1,0.9,1.5,1.6c0.4,0.6,0.6,1.3,0.6,2.2c0,0.8-0.2,1.4-0.5,2
				c-0.3,0.6-0.8,1.1-1.3,1.5c-0.6,0.4-1.2,0.7-2,0.9c-0.8,0.2-1.6,0.3-2.5,0.3c-0.9,0-1.8-0.1-2.6-0.3c-0.8-0.2-1.5-0.5-2.1-0.9
				c-0.6-0.4-1.1-0.9-1.4-1.5s-0.5-1.3-0.5-2.1v-0.2H212.6z"/>
			<path class="st0" d="M227,6.3h13.8v3.9h-4.9V22h-4V10.2H227V6.3z"/>
			<path class="st0" d="M246.9,6.3H259v3.9h-8v2.3h6.6v3.6h-6.6v2h8V22h-12.1V6.3z"/>
			<path class="st0" d="M265.5,22V6.3h4l4.5,9.9l4.6-9.9h4V22h-4v-7.4l-3.3,6.8h-2.6l-3.3-6.8V22H265.5z"/>
		</g>
		<g>
			<path class="st0" d="M95,38.2h-6.6c0.1,0.8,0.4,1.5,1,2c0.6,0.5,1.3,0.8,2.2,0.8c0.5,0,0.9-0.1,1.4-0.3c0.4-0.2,0.8-0.4,1.1-0.8
				l0.6,0.7c-0.4,0.4-0.8,0.7-1.3,1c-0.5,0.2-1.1,0.3-1.7,0.3c-0.8,0-1.5-0.2-2.2-0.5c-0.6-0.3-1.1-0.8-1.5-1.4s-0.5-1.3-0.5-2.1
				s0.2-1.5,0.5-2.1c0.3-0.6,0.8-1.1,1.4-1.4c0.6-0.3,1.3-0.5,2-0.5s1.4,0.2,2,0.5c0.6,0.3,1,0.8,1.4,1.4c0.3,0.6,0.5,1.3,0.5,2.1
				L95,38.2z M89.3,35.5c-0.5,0.5-0.8,1.1-0.9,1.9H94c-0.1-0.8-0.4-1.4-0.9-1.9s-1.2-0.7-1.9-0.7C90.4,34.8,89.8,35,89.3,35.5z"/>
			<path class="st0" d="M109.5,34.7c0.6,0.6,0.9,1.4,0.9,2.5v4.6h-1.1v-4.5c0-0.8-0.2-1.5-0.6-1.9c-0.4-0.4-1-0.6-1.7-0.6
				c-0.8,0-1.5,0.3-1.9,0.8c-0.5,0.5-0.7,1.2-0.7,2.1v4.2h-1.1v-4.5c0-0.8-0.2-1.5-0.6-1.9c-0.4-0.4-1-0.6-1.7-0.6
				c-0.8,0-1.5,0.3-1.9,0.8c-0.5,0.5-0.7,1.2-0.7,2.1v4.2h-1.1v-7.9h1v1.5c0.3-0.5,0.7-0.9,1.2-1.1c0.5-0.3,1.1-0.4,1.7-0.4
				c0.7,0,1.2,0.1,1.7,0.4c0.5,0.3,0.9,0.7,1.1,1.3c0.3-0.5,0.7-0.9,1.3-1.2c0.5-0.3,1.2-0.4,1.9-0.4
				C108.1,33.8,108.9,34.1,109.5,34.7z"/>
			<path class="st0" d="M120.2,38.2h-6.6c0.1,0.8,0.4,1.5,1,2c0.6,0.5,1.3,0.8,2.2,0.8c0.5,0,0.9-0.1,1.4-0.3
				c0.4-0.2,0.8-0.4,1.1-0.8l0.6,0.7c-0.4,0.4-0.8,0.7-1.3,1c-0.5,0.2-1.1,0.3-1.7,0.3c-0.8,0-1.5-0.2-2.2-0.5
				c-0.6-0.3-1.1-0.8-1.5-1.4s-0.5-1.3-0.5-2.1s0.2-1.5,0.5-2.1c0.3-0.6,0.8-1.1,1.4-1.4c0.6-0.3,1.3-0.5,2-0.5s1.4,0.2,2,0.5
				c0.6,0.3,1,0.8,1.4,1.4c0.3,0.6,0.5,1.3,0.5,2.1L120.2,38.2z M114.5,35.5c-0.5,0.5-0.8,1.1-0.9,1.9h5.6c-0.1-0.8-0.4-1.4-0.9-1.9
				s-1.2-0.7-1.9-0.7C115.6,34.8,115,35,114.5,35.5z"/>
			<path class="st0" d="M128.9,34.7c0.6,0.6,0.9,1.4,0.9,2.5v4.6h-1.1v-4.5c0-0.8-0.2-1.5-0.6-1.9c-0.4-0.4-1-0.6-1.8-0.6
				c-0.9,0-1.5,0.3-2,0.8c-0.5,0.5-0.7,1.2-0.7,2.1v4.2h-1.1v-7.9h1v1.5c0.3-0.5,0.7-0.9,1.2-1.1c0.5-0.3,1.1-0.4,1.8-0.4
				C127.5,33.8,128.3,34.1,128.9,34.7z"/>
			<path class="st0" d="M136.8,41.4c-0.2,0.2-0.5,0.3-0.7,0.4c-0.3,0.1-0.6,0.1-0.9,0.1c-0.7,0-1.3-0.2-1.7-0.6
				c-0.4-0.4-0.6-1-0.6-1.7v-4.8h-1.4v-0.9h1.4v-1.7h1.1v1.7h2.4v0.9h-2.4v4.7c0,0.5,0.1,0.8,0.4,1.1s0.6,0.4,1,0.4
				c0.2,0,0.4,0,0.6-0.1c0.2-0.1,0.4-0.2,0.5-0.3L136.8,41.4z"/>
			<path class="st0" d="M144,34.6c0.6,0.5,0.8,1.3,0.8,2.3v4.9h-1v-1.2c-0.2,0.4-0.6,0.7-1.1,1c-0.5,0.2-1,0.3-1.7,0.3
				c-0.9,0-1.6-0.2-2.1-0.6c-0.5-0.4-0.8-1-0.8-1.7c0-0.7,0.2-1.2,0.7-1.6s1.3-0.6,2.3-0.6h2.5v-0.5c0-0.7-0.2-1.2-0.6-1.6
				c-0.4-0.4-0.9-0.5-1.7-0.5c-0.5,0-1,0.1-1.5,0.2c-0.5,0.2-0.9,0.4-1.2,0.7l-0.5-0.8c0.4-0.3,0.9-0.6,1.5-0.8
				c0.6-0.2,1.2-0.3,1.8-0.3C142.6,33.8,143.4,34.1,144,34.6z M142.7,40.7c0.4-0.3,0.8-0.7,1-1.2v-1.3h-2.5c-1.4,0-2,0.5-2,1.4
				c0,0.5,0.2,0.8,0.5,1.1s0.8,0.4,1.5,0.4C141.8,41.1,142.3,40.9,142.7,40.7z"/>
			<path class="st0" d="M148,41.6c-0.6-0.2-1-0.4-1.4-0.7l0.5-0.8c0.3,0.3,0.8,0.5,1.3,0.6s1,0.2,1.6,0.2c0.7,0,1.3-0.1,1.6-0.3
				c0.3-0.2,0.5-0.5,0.5-1c0-0.3-0.1-0.5-0.3-0.7s-0.4-0.3-0.7-0.4c-0.3-0.1-0.7-0.2-1.2-0.2c-0.6-0.1-1.2-0.2-1.6-0.4
				s-0.7-0.3-1-0.6c-0.3-0.3-0.4-0.7-0.4-1.3c0-0.7,0.3-1.2,0.8-1.6s1.3-0.6,2.3-0.6c0.5,0,1,0.1,1.5,0.2s0.9,0.3,1.3,0.5l-0.5,0.9
				c-0.7-0.5-1.4-0.7-2.3-0.7c-0.7,0-1.2,0.1-1.5,0.4c-0.3,0.2-0.5,0.6-0.5,1c0,0.3,0.1,0.5,0.3,0.7c0.2,0.2,0.4,0.3,0.7,0.4
				c0.3,0.1,0.7,0.2,1.2,0.3c0.6,0.1,1.1,0.2,1.5,0.4s0.7,0.3,1,0.6c0.3,0.3,0.4,0.7,0.4,1.2c0,0.7-0.3,1.2-0.9,1.7
				s-1.4,0.6-2.4,0.6C149.2,41.9,148.6,41.8,148,41.6z"/>
			<path class="st0" d="M166.3,30.6v11.2h-1v-1.6c-0.3,0.5-0.7,0.9-1.3,1.2c-0.5,0.3-1.1,0.4-1.8,0.4c-0.7,0-1.4-0.2-2-0.5
				c-0.6-0.3-1.1-0.8-1.4-1.4c-0.3-0.6-0.5-1.3-0.5-2.1c0-0.8,0.2-1.5,0.5-2.1c0.3-0.6,0.8-1.1,1.4-1.4c0.6-0.3,1.3-0.5,2-0.5
				c0.6,0,1.2,0.1,1.7,0.4s0.9,0.7,1.3,1.2v-4.8H166.3z M163.8,40.6c0.4-0.3,0.8-0.6,1.1-1.1c0.3-0.5,0.4-1,0.4-1.6
				c0-0.6-0.1-1.1-0.4-1.6c-0.3-0.5-0.6-0.8-1.1-1.1c-0.4-0.3-1-0.4-1.5-0.4c-0.6,0-1.1,0.1-1.5,0.4s-0.8,0.6-1.1,1.1
				c-0.3,0.5-0.4,1-0.4,1.6c0,0.6,0.1,1.1,0.4,1.6s0.6,0.8,1.1,1.1s1,0.4,1.5,0.4C162.8,41,163.3,40.8,163.8,40.6z"/>
			<path class="st0" d="M169.3,31.9c-0.2-0.2-0.2-0.3-0.2-0.5c0-0.2,0.1-0.4,0.2-0.5c0.2-0.2,0.3-0.2,0.6-0.2s0.4,0.1,0.6,0.2
				c0.2,0.1,0.2,0.3,0.2,0.5c0,0.2-0.1,0.4-0.2,0.6c-0.2,0.2-0.3,0.2-0.6,0.2S169.4,32.1,169.3,31.9z M169.3,33.9h1.1v7.9h-1.1V33.9
				z"/>
			<path class="st0" d="M180.7,33.9v7c0,1.3-0.3,2.3-1,3c-0.7,0.6-1.7,1-3,1c-0.7,0-1.4-0.1-2.1-0.3c-0.7-0.2-1.2-0.5-1.6-0.9
				l0.5-0.8c0.4,0.3,0.8,0.6,1.4,0.8s1.1,0.3,1.7,0.3c1,0,1.7-0.2,2.2-0.7c0.5-0.5,0.7-1.2,0.7-2.2v-1c-0.3,0.5-0.8,0.9-1.3,1.1
				c-0.5,0.3-1.1,0.4-1.8,0.4c-0.7,0-1.4-0.2-2-0.5s-1.1-0.8-1.4-1.4s-0.5-1.3-0.5-2c0-0.7,0.2-1.4,0.5-2c0.3-0.6,0.8-1,1.4-1.4
				s1.3-0.5,2-0.5c0.7,0,1.3,0.1,1.8,0.4c0.5,0.3,1,0.7,1.3,1.2v-1.5H180.7z M178.2,40.2c0.5-0.2,0.8-0.6,1.1-1
				c0.3-0.4,0.4-0.9,0.4-1.5c0-0.6-0.1-1.1-0.4-1.5c-0.3-0.4-0.6-0.8-1.1-1c-0.5-0.2-1-0.4-1.6-0.4c-0.6,0-1.1,0.1-1.5,0.4
				c-0.5,0.2-0.8,0.6-1.1,1c-0.3,0.4-0.4,0.9-0.4,1.5c0,0.6,0.1,1.1,0.4,1.5c0.3,0.4,0.6,0.8,1.1,1s1,0.4,1.5,0.4
				S177.7,40.5,178.2,40.2z"/>
			<path class="st0" d="M183.7,31.9c-0.2-0.2-0.2-0.3-0.2-0.5c0-0.2,0.1-0.4,0.2-0.5c0.2-0.2,0.3-0.2,0.6-0.2s0.4,0.1,0.6,0.2
				c0.2,0.1,0.2,0.3,0.2,0.5c0,0.2-0.1,0.4-0.2,0.6c-0.2,0.2-0.3,0.2-0.6,0.2S183.8,32.1,183.7,31.9z M183.7,33.9h1.1v7.9h-1.1V33.9
				z"/>
			<path class="st0" d="M192,41.4c-0.2,0.2-0.5,0.3-0.7,0.4c-0.3,0.1-0.6,0.1-0.9,0.1c-0.7,0-1.3-0.2-1.7-0.6
				c-0.4-0.4-0.6-1-0.6-1.7v-4.8h-1.4v-0.9h1.4v-1.7h1.1v1.7h2.4v0.9H189v4.7c0,0.5,0.1,0.8,0.4,1.1s0.6,0.4,1,0.4
				c0.2,0,0.4,0,0.6-0.1c0.2-0.1,0.4-0.2,0.5-0.3L192,41.4z"/>
			<path class="st0" d="M199.1,34.6c0.6,0.5,0.8,1.3,0.8,2.3v4.9h-1v-1.2c-0.2,0.4-0.6,0.7-1.1,1c-0.5,0.2-1,0.3-1.7,0.3
				c-0.9,0-1.6-0.2-2.1-0.6c-0.5-0.4-0.8-1-0.8-1.7c0-0.7,0.2-1.2,0.7-1.6s1.3-0.6,2.3-0.6h2.5v-0.5c0-0.7-0.2-1.2-0.6-1.6
				c-0.4-0.4-0.9-0.5-1.7-0.5c-0.5,0-1,0.1-1.5,0.2c-0.5,0.2-0.9,0.4-1.2,0.7l-0.5-0.8c0.4-0.3,0.9-0.6,1.5-0.8
				c0.6-0.2,1.2-0.3,1.8-0.3C197.7,33.8,198.5,34.1,199.1,34.6z M197.9,40.7c0.4-0.3,0.8-0.7,1-1.2v-1.3h-2.5c-1.4,0-2,0.5-2,1.4
				c0,0.5,0.2,0.8,0.5,1.1s0.8,0.4,1.5,0.4C196.9,41.1,197.4,40.9,197.9,40.7z"/>
			<path class="st0" d="M202.8,31.9c-0.2-0.2-0.2-0.3-0.2-0.5c0-0.2,0.1-0.4,0.2-0.5c0.2-0.2,0.3-0.2,0.6-0.2s0.4,0.1,0.6,0.2
				c0.2,0.1,0.2,0.3,0.2,0.5c0,0.2-0.1,0.4-0.2,0.6c-0.2,0.2-0.3,0.2-0.6,0.2S203,32.1,202.8,31.9z M202.8,33.9h1.1v7.9h-1.1V33.9z"
				/>
			<path class="st0" d="M207.2,41.6c-0.6-0.2-1-0.4-1.4-0.7l0.5-0.8c0.3,0.3,0.8,0.5,1.3,0.6s1,0.2,1.6,0.2c0.7,0,1.3-0.1,1.6-0.3
				c0.3-0.2,0.5-0.5,0.5-1c0-0.3-0.1-0.5-0.3-0.7s-0.4-0.3-0.7-0.4c-0.3-0.1-0.7-0.2-1.2-0.2c-0.6-0.1-1.2-0.2-1.6-0.4
				s-0.7-0.3-1-0.6c-0.3-0.3-0.4-0.7-0.4-1.3c0-0.7,0.3-1.2,0.8-1.6s1.3-0.6,2.3-0.6c0.5,0,1,0.1,1.5,0.2s0.9,0.3,1.3,0.5l-0.5,0.9
				c-0.7-0.5-1.4-0.7-2.3-0.7c-0.7,0-1.2,0.1-1.5,0.4c-0.3,0.2-0.5,0.6-0.5,1c0,0.3,0.1,0.5,0.3,0.7c0.2,0.2,0.4,0.3,0.7,0.4
				c0.3,0.1,0.7,0.2,1.2,0.3c0.6,0.1,1.1,0.2,1.5,0.4s0.7,0.3,1,0.6c0.3,0.3,0.4,0.7,0.4,1.2c0,0.7-0.3,1.2-0.9,1.7
				s-1.4,0.6-2.4,0.6C208.4,41.9,207.8,41.8,207.2,41.6z"/>
		</g>
		<g>
			<path class="st0" d="M30.3,16.4L41.4,5.3C45,1.8,49.2,0,54.2,0c5,0,9.2,1.8,12.7,5.3c3.5,3.5,5.3,7.8,5.3,12.7
				c0,5-1.8,9.2-5.3,12.7L55.8,41.9c-1.3-0.8-2.4-1.9-3.2-3.2l11.1-11.1c2.6-2.6,4-5.8,4-9.6c0-3.7-1.3-6.9-4-9.6
				c-2.6-2.6-5.8-4-9.6-4c-3.7,0-6.9,1.3-9.6,4L33.5,19.6c0.9,3.2-0.9,7.9-4.8,11.8c-4.8,4.8-11,6.4-13.8,3.6
				c-2.8-2.8-1.2-9,3.6-13.8C22.4,17.3,27.1,15.5,30.3,16.4L30.3,16.4z"/>
			<path class="st0" d="M41.9,33.4L30.8,44.6c-3.5,3.5-7.8,5.3-12.7,5.3c-5,0-9.2-1.8-12.7-5.3C1.8,41,0,36.8,0,31.8
				c0-5,1.8-9.2,5.3-12.7L16.4,7.9c1.4,0.7,2.5,1.8,3.2,3.2L8.5,22.3c-2.6,2.6-4,5.8-4,9.6c0,3.7,1.3,6.9,4,9.6c2.6,2.6,5.8,4,9.5,4
				c3.7,0,6.9-1.3,9.6-4l11.1-11.1c-0.2-3,2.2-7.2,3.6-8.6l0.4-0.4l10.1-10.1c0.1-0.1,0.2-0.1,0.3,0l0.2,0.2c0.1,0.1,0.1,0.3,0,0.3
				L43.4,21.8l1.9,1.9l10.1-10.1c0.1-0.1,0.2-0.1,0.3,0l0.2,0.2c0.1,0.1,0.1,0.3,0,0.3L45.9,24.3l0.9,0.9l0,0l0.1,0.1l0,0l1,1
				l10.1-10.1c0.1-0.1,0.2-0.1,0.3,0l0.2,0.2c0.1,0.1,0.1,0.3,0,0.3L48.4,26.8l1.9,1.9l10.1-10.1c0.1-0.1,0.2-0.1,0.3,0l0.2,0.2
				c0.1,0.1,0.1,0.3,0,0.3L50.9,29.4l-0.4,0.4C49.1,31.2,44.9,33.7,41.9,33.4L41.9,33.4z"/>
		</g>
	</g>
</g>
</svg>
